<?xml version="1.0" encoding="UTF-8" standalone="no"?>
<svg xmlns:rdf="http://www.w3.org/1999/02/22-rdf-syntax-ns#" xmlns="http://www.w3.org/2000/svg" height="269.63995" width="278.27998" version="1.1" xmlns:cc="http://creativecommons.org/ns#" xmlns:dc="http://purl.org/dc/elements/1.1/" viewBox="0 0 278.27998 269.63995"><path d="M68.04,123.12H48.12V144.6L36.24,150.36l11.88,6.36V175.8l13.2,8.04c4.8-.6,10.92-1.44006,18.24-2.16l50.76,29.28,9.36,42.48c0-.12,9.36-42.48,9.36-42.48l50.88-29.28c7.08.84,13.32,1.56,18.12,2.16l13.08-8.04V156.72l12-6.12-12-6V123.12h-19.8a47.34231,47.34231,0,0,0,6.96-9.6c1.56-2.76,3.12-6.36,4.92-10.32,14.4-4.2,24.96-13.56,29.64-22.44,12.36-22.56,21.6-50.28,21.6-50.28s-5.28,2.64-11.76,5.75995c5.16-15.84,8.4-29.4,8.4-29.4S214.2,44.52,169.68,79.92l-3.84-2.28c0-.36.24-3.48.24-3.84,0,0,.48-3.72-6.24-6a4.45325,4.45325,0,0,0-1.08-.24c3.12-2.52,8.28-6.12,11.76-8.64,5.76-3.96,5.16-8.4,5.16-8.4L154.44,66.24a47.96965,47.96965,0,0,0-29.76,0L103.56,50.52s-.72,4.32,5.16,8.4c3.6,2.52,8.76,6.12,11.88,8.64a4.45371,4.45371,0,0,1-1.08.24c-6.6,2.4-6.24,6-6.24,6,0,.24.24,3.36.24,3.84l-3.84,1.92C65.16,44.16,8.28,6.6,8.28,6.6s3.24,13.56,8.4,29.4C9.72,32.76,4.92,30.24,4.92,30.24s9.24,27.84,21.6,50.28c4.44,9.12,15.12,18.24,29.52,22.44,0,0,2.52,5.64,4.56,9.6A60.95259,60.95259,0,0,0,68.04,123.12Z" fill="#1d1160"/><path d="M163.44,90.84a13.97153,13.97153,0,0,1-.72,1.8C182.76,79.56,217.44,57,256.44,31.56c0,0,0,.84,3.48-9.24C219,47.4,182.52,75.48,163.44,90.84Z" fill="#00788c"/><path d="M115.8,90.84C96.96,75.48,60.36,47.4,19.08,22.44c3.24,9.84,3.36,9.24,3.36,9.24,39,25.08,74.04,48,94.08,61.08A3.76716,3.76716,0,0,1,115.8,90.84Z" fill="#00788c"/><path d="M79.56,124.32A51.863,51.863,0,0,1,64.2,104.4l3.84,1.2c12.72,3.24005,37.2,6.72,37.2,6.72-11.76.24-21.84,1.08-27.48,1.8-1.08-1.56-2.64-3.36-3.12-4.68a41.59229,41.59229,0,0,0,1.44,7.32A67.64859,67.64859,0,0,0,79.56,124.32ZM139.68,111a31.98594,31.98594,0,0,1-17.04-16.68c4.08,3.72,9.6,4.8,14.04.72-5.4-2.4-6-11.88-6.96-14.28-2.28-4.92-5.4-7.56-8.04-8.64,1.44-.48,2.52-.84,3.48-1.08a14.8611,14.8611,0,0,1,7.92,10.56s.6-6.96-3-12a40.9062,40.9062,0,0,1,19.08,0c-3.48,5.04-3,12-3,12a15.16828,15.16828,0,0,1,7.92-10.56,29.50155,29.50155,0,0,1,3.48,1.08c-2.64,1.08-5.76,3.48-7.92,8.64-.96,2.4-1.68,11.88-6.96,14.28C144.12,102,142.56,108.84,139.68,111Z" fill="#00788c"/><path d="M202.92,116.64a49.96723,49.96723,0,0,0,1.56-7.2,21.37105,21.37105,0,0,1-3.24,4.56c-5.52-.6-15.72-1.56-27.36-1.8,0,0,24.24-3.24,37.2-6.72l3.84-1.08a51.61512,51.61512,0,0,1-15.48,19.8C199.8,124.32,201.72,120.84,202.92,116.64Z" fill="#00788c"/><path d="M109.2,184.8,84.36,170.4c-1.8.24005-3.48.36-5.04.6l34.56,20.04A36.81643,36.81643,0,0,1,109.2,184.8Z" fill="#00788c"/><path d="M170.04,184.8l24.84-14.4c1.8.24005,3.36.36,5.04.6l-34.56,20.04A27.35485,27.35485,0,0,0,170.04,184.8Z" fill="#00788c"/><path d="M128.52,188.28c-10.92-2.52-15.48-7.8-15.48-7.8a28.72618,28.72618,0,0,0,9.72,11.28C122.88,191.75995,127.56,190.32,128.52,188.28Z" fill="#00788c"/><path d="M121.92,176.4c-.84-.84-1.68-1.55994-2.4-2.4a31.14248,31.14248,0,0,0-6.6,3.36c2.4,2.4,7.08,5.4,15.36,7.2C127.32,182.04,124.68,179.4,121.92,176.4Z" fill="#00788c"/><path d="M139.44,202.44a16.4402,16.4402,0,0,0-7.2,1.8c-.96-1.8-1.92-3.36-3-5.04a22.5788,22.5788,0,0,0,5.88-.12,49.17968,49.17968,0,0,1-9.36-4.44006,8.70679,8.70679,0,0,0,1.08-.6,9.26382,9.26382,0,0,0,3.24-2.28A6.52464,6.52464,0,0,0,132,187.44c0-5.4-3.72-7.2-7.8-11.28a25.57467,25.57467,0,0,1-2.64-2.52c3.72-1.08,8.88-1.79993,15.96-2.04l1.56,23.04h.24l1.8-23.04a67.91893,67.91893,0,0,1,15.84,2.04c-.96.72-1.8,1.8-2.64,2.52-4.08,4.08-7.8,6-7.8,11.28a6.28248,6.28248,0,0,0,1.92,4.31995,16.15169,16.15169,0,0,0,3.24,2.28,4.8641,4.8641,0,0,1,1.08.6,35.17364,35.17364,0,0,1-9.24,4.44006,14.34717,14.34717,0,0,0,5.76.12c-.96,1.68-2.16,3.24-3,5.04A13.01035,13.01035,0,0,0,139.44,202.44Z" fill="#00788c"/><path d="M156.48,191.76a31.28876,31.28876,0,0,0,9.84-11.16s-4.56,5.4-15.6,7.79993C151.68,190.32,156.48,191.76,156.48,191.76Z" fill="#00788c"/><path d="M150.84,184.68c8.4-1.8,12.96-4.8,15.48-7.08a18.73919,18.73919,0,0,0-6.6-3.48q-1.26,1.26-2.52,2.52C154.44,179.4,151.92,182.04,150.84,184.68Z" fill="#00788c"/><path d="M132.12,95.52a12.25145,12.25145,0,0,1-4.68-8.4C127.56,87.12,122.28,96,132.12,95.52Z" fill="#fff"/><path d="M147.36,95.52a12.25146,12.25146,0,0,0,4.68-8.4S157.08,96,147.36,95.52Z" fill="#fff"/><path d="M144.48,210.84c-.72-.84-1.8-1.68005-5.04-1.68005A7.09,7.09,0,0,0,134.52,210.6l5.16,20.52Z" fill="#fff"/><polygon points="178.68 120.96 178.68 128.4 176.04 128.4 176.04 120.96 173.88 120.96 173.88 118.68 180.48 118.68 180.48 120.84 178.68 120.96" fill="#fff"/><polygon points="166.92 120.96 166.92 128.4 164.28 128.4 164.28 120.96 162.12 120.96 162.12 118.68 168.84 118.68 168.84 120.84 166.92 120.96" fill="#fff"/><path d="M130.2,122.76h-2.88v-1.92h2.88Zm1.32,2.4h.96V120l-1.08-1.08h-6.48v9.6h2.4v-3.36h1.8l1.56,3.24h2.4Z" fill="#fff"/><polygon points="193.2 120.96 193.2 118.68 186.12 118.68 186.12 128.4 193.2 128.4 193.2 126.24 188.4 126.24 188.4 124.8 193.2 124.8 193.2 122.52 188.4 122.52 188.4 120.96 193.2 120.96" fill="#fff"/><polygon points="140.88 126.24 140.88 118.68 138.48 118.68 138.48 128.4 144.48 128.4 144.48 126.24 140.88 126.24" fill="#fff"/><path d="M154.32,126.24h-2.76v-5.28h2.76Zm1.32-7.56h-6.36v8.64l1.08,1.08h6.48v-8.64Z" fill="#fff"/><path d="M114.12,123.12v-2.28H117v2.28Zm5.16,5.28v-8.64l-1.2-1.08h-6.36v9.6h2.4v-3.12H117v3.12h2.28Z" fill="#fff"/><polygon points="104.04 118.68 104.04 123.12 101.28 123.12 101.28 118.68 98.88 118.68 98.88 128.4 101.28 128.4 101.28 125.28 104.04 125.28 104.04 128.4 106.32 128.4 106.32 118.68 104.04 118.68" fill="#fff"/><path d="M248.64,50.4c4.68-11.04,8.28-18.84,8.28-18.84-39,25.2-73.8,48-93.84,61.08a36.39388,36.39388,0,0,1-2.64,5.76l78.84-42.84L177.84,99.84l3-.48,32.4-3.12s22.08-2.28,34.32-18.6c5.76-8.88,15.48-34.56,15.48-34.56Z" fill="#fff"/><path d="M60.72,153.12,68.28,150v17.04a58.312,58.312,0,0,1,6.6-.84V128.4h-6.6V141.96l-7.56,3.24V128.4h-6.6V147.96s-5.4,2.64-5.4,2.76l5.4,2.88v15.84c2.16-.24,4.32-.84,6.6-1.08Z" fill="#fff"/><path d="M112.44,140.4h7.68v5.88c-2.64,0-5.04,0-7.68.12Zm0,12.48c1.68,0,3.24-.12,5.04-.12,1.32,3.12,2.4,6.72,3.6,9.84,2.4,0,4.32-.12,6.6-.12-1.32-3.12-2.4-6.72-3.6-9.84h2.64v-15.6l-3-3h-20.4l2.64,3.12v26.16c2.28-.12,4.32-.12,6.6-.36V152.88Z" fill="#fff"/><path d="M138.48,140.4h7.56v22.2c2.28,0,4.68,0,6.96.12006V137.4l-3.12-3.12H129.12l2.64,3.12V162.72h6.72Z" fill="#fff"/><path d="M177.96,157.2c-4.32-.12-8.64-.48-12.84-.6v-4.68c4.2.12,8.52.24,12.84.48v-6.6c-4.32-.12-8.64-.12-12.84-.24v-4.92h12.84V134.4H155.64l2.4,3.24005v25.44c6.84.12,13.68.48,20.04.96v-6.72h-.12Z" fill="#fff"/><path d="M194.88,140.4h5.76v-6.24H181.8v6.24h5.76v24c2.52.12,4.8.24005,7.32.6Z" fill="#fff"/><path d="M94.08,157.56c-2.64.12-4.92.24-7.56.48V140.4h7.56Zm6.84-20.16-3.12-3.24H77.52l2.4,3V162l2.64,3.24c5.76-.72,12.12-1.2,18.36-1.56Z" fill="#fff"/><path d="M224.64,153.24c2.16-.96,4.08-1.92,6.12-3-6.6-3.12-13.2-5.76-20.04-8.4V134.28h7.2v2.76h6.72v-8.76h-22.8l2.64,3V147l13.68,6v8.75995s-3.12-.36-7.08-.96v-2.76l-6.6-.84v8.88c7.2.84,14.04,1.8,20.28,3C224.64,164.16,224.64,156.84,224.64,153.24Z" fill="#fff"/><polygon points="91.08 125.28 91.08 126.24 88.92 126.24 88.92 120.96 91.08 120.96 91.08 121.68 93.48 121.68 93.48 118.68 86.28 118.68 86.28 127.32 87.48 128.4 93.48 128.4 93.48 125.28 91.08 125.28" fill="#fff"/><path d="M30.72,50.4c-4.8-11.04-8.28-18.72-8.28-18.72,39,25.32,73.8,48,93.84,61.08a36.39135,36.39135,0,0,0,2.64,5.76L40.32,55.68l61.32,44.28-3-.48-32.4-3.12s-21.96-2.16-34.2-18.6C26.28,68.88,16.56,43.2,16.56,43.2Z" fill="#fff"/><path d="M68.04,123.12H48.12V144.6l-11.88,5.76,11.88,6.36V175.8l13.2,8.04c4.8-.6,10.92-1.44006,18.24-2.16l50.76,29.28,9.36,42.48c0-.12,9.36-42.48,9.36-42.48l50.88-29.28c7.08.84,13.32,1.56,18.12,2.16l13.08-8.04V156.72l12-6.12006-12-6V123.12h-19.8a47.34117,47.34117,0,0,0,6.96-9.6c1.56-2.75995,3.12-6.36,4.92-10.31995,14.4-4.2,24.96-13.56,29.64-22.44,12.36-22.56,21.6-50.28,21.6-50.28s-5.28,2.64-11.76,5.76c5.16-15.84,8.4-29.4,8.4-29.4S214.2,44.52,169.68,79.92l-3.84-2.28c0-.36.24-3.48.24-3.84,0,0,.48-3.72-6.24-6a4.45325,4.45325,0,0,0-1.08-.24c3.12-2.52,8.28-6.12,11.76-8.64,5.76-3.96,5.16-8.4,5.16-8.4L154.44,66.24a47.96965,47.96965,0,0,0-29.76,0L103.56,50.52s-.72,4.32,5.16,8.4c3.6,2.52,8.76,6.12,11.88,8.64a4.45371,4.45371,0,0,1-1.08.24c-6.6,2.4-6.24,6-6.24,6,0,.24.24,3.36.24,3.84l-3.84,1.92C65.16,44.16,8.28,6.6,8.28,6.6s3.24,13.56,8.4,29.4C9.72,32.76,4.92,30.24,4.92,30.24s9.24,27.84,21.6,50.28C30.96,89.64,41.64,98.76,56.04,102.96c0,0,2.52,5.64,4.56,9.6A60.95333,60.95333,0,0,0,68.04,123.12ZM272.88,42.84C266.64,59.4,258.36,76.68,254.28,83.76c-6.96,12-20.88,19.08-29.04,21.84,0,0-3.96,9.6-8.04,14.88h16.56v22.56l15.96,7.56-15.96,7.92V177.6l-15.36,9.36s-12.24-1.44-18.24-2.16L151.56,213c-9.6,44.04-12.12,56.64-12.12,56.64s-2.28-12-12-56.64l-48.6-28.2c-6,.72-18.24,2.16-18.24,2.16L45.24,177.6V158.52L29.28,150.6l15.96-7.56V120.36H61.8c-4.08-4.92-8.16-15-8.16-15A62.70017,62.70017,0,0,1,39.84,99,48.99277,48.99277,0,0,1,24.48,83.76,383.462,383.462,0,0,1,6.24,42.72C3.48,35.64,0,24.72,0,24.72S9.12,29.04,11.76,30.36C7.44,17.28,3.72,0,3.72,0S65.88,41.04,109.44,75.96l.72-.6V73.08a8.10817,8.10817,0,0,1,.36-2.52,9.43231,9.43231,0,0,1,4.08-4.8c-3.12-2.4-9.12-6.24-9.6-6.96-4.08-3.6-4.92-7.8-4.68-9.72L101.04,44.4l23.64,17.64c12.84-3.72,21.96-2.04,28.8,0L177.12,44.4l.6,4.68005c.36,2.16-.24,6.12-4.68,9.72-.48.6-6.24,4.56-9.6,6.96,2.64,1.68,3.72,3.36,4.2,4.8a11.95123,11.95123,0,0,1,.24,2.52v2.28l.72.6C213.36,40.2,274.56.12,274.56.12s-3.12,14.28-8.04,30.24c2.4-1.08,11.76-5.52,11.76-5.52A118.50791,118.50791,0,0,1,272.88,42.84Z" fill="#a1a1a4"/></svg>