<?xml version="1.0" encoding="UTF-8" standalone="no"?>
<svg xmlns:rdf="http://www.w3.org/1999/02/22-rdf-syntax-ns#" xmlns="http://www.w3.org/2000/svg" height="270.95996" width="218.40086" version="1.1" xmlns:cc="http://creativecommons.org/ns#" xmlns:dc="http://purl.org/dc/elements/1.1/" viewBox="0 0 218.40086 270.95996"><path d="M109.32,270.96A109.34015,109.34015,0,0,1,0,161.64,108.24247,108.24247,0,0,1,32.64,83.76c.12-.24.36-.36.48-.48-7.2-10.92-11.28-23.76-8.16-39.36C30.6,15.36,53.76,6.72,54.72,6.36A3.17331,3.17331,0,0,1,58.8,7.92a3.83262,3.83262,0,0,1,.36,2.28A53.986,53.986,0,0,1,76.92.12,2.97956,2.97956,0,0,1,78,0a3.2878,3.2878,0,0,1,1.68,6.12,56.64,56.64,0,0,0-17.4,16.32A45.86143,45.86143,0,0,1,72.6,21h.72a3.42547,3.42547,0,0,1,.6,6.72,61.782,61.782,0,0,0-19.2,9.48A59.65025,59.65025,0,0,0,51.96,54.96,57.3846,57.3846,0,0,0,62.04,87.6a42.94184,42.94184,0,0,0,4.56,5.52C66,81.24,69.48,62.76,90.96,54.24a4.26381,4.26381,0,0,1,1.2-.24,3.28513,3.28513,0,0,1,3,1.92,3.43291,3.43291,0,0,1-1.2,4.44h-.24a28.50059,28.50059,0,0,0-8.04,8.04,25.629,25.629,0,0,1,5.52-1.08h.6a3.30988,3.30988,0,0,1,3.12,2.28,3.59079,3.59079,0,0,1-1.32,3.96l-.24.12c-6.84,3.96-10.68,8.52-11.4,13.68-.72,5.52,2.4,10.8,4.56,13.8,5.76-6.72,9.48-18,10.44-22.32a3.49132,3.49132,0,0,1,3.36-2.52h.36a3.44919,3.44919,0,0,1,3,3.24c.12,14.04-3.72,23.64-7.56,29.75995a29.966,29.966,0,0,0,12.6,3h.84a29.62755,29.62755,0,0,0,12.6-3C118.32,103.2,114.6,93.6,114.6,79.56a3.26471,3.26471,0,0,1,3-3.24h.36a3.49132,3.49132,0,0,1,3.36,2.52c1.08,4.32,4.8,15.6,10.44,22.32,2.28-3,5.28-8.28,4.56-13.8-.72-5.16-4.56-9.84-11.4-13.68l-.12-.12a3.22985,3.22985,0,0,1-1.44-3.96,3.103,3.103,0,0,1,3.12-2.28h.6a25.62918,25.62918,0,0,1,5.52,1.08,28.92563,28.92563,0,0,0-8.16-8.04h-.12A3.4766,3.4766,0,0,1,123,55.92,3.41738,3.41738,0,0,1,126,54a5.10351,5.10351,0,0,1,1.32.24c21.36,8.52,24.84,27,24.36,38.88a42.44863,42.44863,0,0,0,4.44-5.52,57.77644,57.77644,0,0,0,10.2-32.64A56.16459,56.16459,0,0,0,163.44,37.2c-10.08-7.2-18.96-9.48-19.08-9.48a3.39467,3.39467,0,0,1-2.64-3.6A3.57517,3.57517,0,0,1,144.96,21h.6A45.06637,45.06637,0,0,1,156,22.44,62.59537,62.59537,0,0,0,138.6,6.12a3.3131,3.3131,0,0,1-1.44-4.2A3.45926,3.45926,0,0,1,140.28,0a3.32246,3.32246,0,0,1,1.08.12A53.986,53.986,0,0,1,159.12,10.2a3.18835,3.18835,0,0,1,.36-2.28,3.38941,3.38941,0,0,1,3-1.8,3.50387,3.50387,0,0,1,1.08.24c.96.36,24.12,9,29.76,37.56,3.12,15.6-.96,28.44-8.16,39.36a.93711.93711,0,0,1,.48.48,108.35741,108.35741,0,0,1,32.76,77.88C218.64,222,169.56,270.96,109.32,270.96Z" fill="#eee1c6"/><path d="M43.8,78.6S39,56.64,42.6,43.8a23.35638,23.35638,0,0,0-2.88,3.12C30.96,58.31995,43.8,78.6,43.8,78.6Zm130.92,0s12.84-20.28,4.08-31.68a23.35543,23.35543,0,0,0-2.88-3.12C179.64,56.64,174.72,78.6,174.72,78.6ZM28.2,44.75995C33.6,17.76,55.8,9.72,55.8,9.72,47.76,15.72,39.36,27,36,42.84c3.36-4.08,6.36-7.32,9.96-9.72C54.96,13.68,70.32,5.76,78,3.36A61.97163,61.97163,0,0,0,54.96,28.2c11.4-4.08,18.24-3.6,18.24-3.6A64.73366,64.73366,0,0,0,51.96,35.16,60.70626,60.70626,0,0,0,59.4,89.64a55.344,55.344,0,0,0,12.12,12.6c-1.44-3.84-7.32-33.48,20.76-44.64l-.24.12A31.019,31.019,0,0,0,78.6,76.56c5.04-4.92,10.44-5.4,13.32-5.76H91.8c-26.04,15-5.4,35.4-5.4,35.4C94.56,99.24,99.36,83.88,100.44,79.68c.12,16.32-5.28,26.04-9,30.72a31.90522,31.90522,0,0,0,35.52,0c-3.6-4.68-9-14.4-9-30.72,1.08,4.2,5.88,19.56,14.04,26.52,0,0,20.76-20.4-5.28-35.4h-.12c2.76.36,8.16.72,13.32,5.76a30.7309,30.7309,0,0,0-13.56-18.84l-.24-.12c28.08,11.16,22.2,40.8,20.76,44.64A55.3438,55.3438,0,0,0,159,89.64a60.70638,60.70638,0,0,0,7.44-54.48A64.82907,64.82907,0,0,0,145.32,24.6s6.84-.48,18.12,3.6A60.85264,60.85264,0,0,0,140.52,3.36c7.56,2.4,22.8,10.32,31.92,29.76,3.72,2.4,6.72,5.64,10.08,9.72C179.04,27,170.76,15.72,162.6,9.72c0,0,22.2,8.04,27.6,35.04,6.36,31.44-18.84,51-39.12,67.92l15.48-6.36c.96-.36,1.8.6,1.56,1.8l-.48,3.84c-.24,2.16-1.8,12.84-7.68,15.96-1.2.72-3.36,1.56-9.84,2.04l-11.52.72,1.92,6.48-11.4,18.24,5.88-6.12,11.88,42.36L114.12,218.52l10.2-46.2-15,18.48-15.24-18.48,10.2,46.2L71.52,191.64l12-42.36,5.88,6.12L78,137.16l1.92-6.48-11.64-.72c-6.48-.48-8.64-1.31995-9.84-2.04-5.88-3.12-7.44-13.8-7.68-15.96l-.36-3.84c-.24-1.2.48-2.16,1.56-1.8l15.36,6.36C47.04,95.75995,21.96,76.2,28.2,44.75995ZM42.6,94.08A94.97021,94.97021,0,0,0,16.08,179.4l28.56-7.8a64.97223,64.97223,0,0,0,128.52-.36l29.28,8.16a94.73347,94.73347,0,0,0-26.4-85.08l2.52-2.64A98.45937,98.45937,0,1,1,40.08,91.56Zm141-7.92-2.28,2.76a102.36,102.36,0,1,1-144,0l-2.4-2.76a106.02005,106.02005,0,1,0,148.68,0Z" fill="#00471b"/><path d="M101.76,231.6l-6,8.16,2.76,14.52-3.72-.72L92.76,243.12l-1.68,9.84-3.48-.6,3.96-22.56,3.48.6L93.96,236.64l4.08-5.76Zm47.4,10.2-3-5.64,3.96-2.16,3,5.64Zm-7.32-13.68,3.96-2.16,2.64,4.92-3.96,2.04Zm9.48,3.72.48-2.28-3.6-6.36-3.24-.96-8.04,4.31995,10.92,20.04,7.92-4.2.96-3.48-3.36-6.12Zm-36,19.2.12,3.72-11.04.12-.36-22.92,11.04-.12.12,3.72-7.56.12006.12,5.52,7.44-.12.12,3.6-7.56.12.12,6.48Zm16.8-2.64.72,3.6-10.92,2.04L117.6,231.6l10.8-2.04.72,3.6-7.32,1.44.96,5.4,7.44-1.44006.6,3.48-7.32,1.44,1.32,6.24Zm26.28-36.36,14.76,17.52L171.24,231.12l-5.04,4.2L164.16,237l-14.64-17.64,2.76-2.28,12.36,14.64,3.48-2.76-12.6-14.64Zm41.4-28.2L196.56,195l-2.52-.84-3.72-1.08,1.08-3.36,2.64.84,1.32-4.31995-6.12-1.8L186.96,192.12l-2.52-.72-9.84-3,.72-2.4,2.64-8.64,2.52.84,3.6,1.08L183,182.64l-2.64-.72-1.2,4.2,5.16,1.68,2.4-7.68,2.4.72,8.28,2.52ZM179.52,198l14.64,1.92-1.8,3.24-10.56-1.32,8.76,4.68L189,209.76l-20.4-10.8,1.68-3.24,5.64,3-4.2-5.64,1.8-3.36Zm3.84,15.72,2.04,1.56-5.64,7.08-1.56,1.92-15.84-12.72L160.32,210l7.2-9,2.04,1.55994,3.36,2.76-2.16,2.76-2.52-2.04-2.76,3.48,12.12,9.72,2.76-3.48-2.64-2.16,2.28-2.76ZM88.92,229.2l-8.16,21.36-2.4-.96-6.12-2.28-2.52-.96L78.12,225l3.24,1.31995L74.52,244.2l4.2,1.56006,6.84-17.88Zm-53.4-16.8,4.32,6.12-3,2.16-6.48-9,18.72-13.44,2.04,2.88ZM44.4,189l-21.84,7.43994-1.08-3.36,13.68-4.68-6.36-.24,4.92-4.08L19.92,188.76l-1.08-3.36,21.72-7.44,1.2,3.36-4.92,4.08,6.36.12Zm3.12,6.12L27.12,205.8l-1.68-3.24005L45.84,192ZM64.8,216.36l-17.52,15-2.4-2.4,4.32-6.36-6.36,4.32-2.4-2.4L55.2,206.76l2.4,2.28-6,7.56,8.16-5.4.84.72-5.4,8.28,7.44-6.12Zm3.6,13.44-3.84-2.4,3-4.68,3.84,2.4Zm7.2-4.8.72-1.08-9.72-6.24v.12L54.24,237l3,1.92,5.4-8.52,3.72,2.4-5.4,8.52,3,1.8,10.44-16.2Z" fill="#fff"/><path d="M98.64,129.96c-1.68-.84-4.8-2.16-7.92-3.6a.84163.84163,0,0,0-1.32.72A4.96632,4.96632,0,0,0,90.96,132c3.48,2.64,6.48,1.2,8.04-.48A.92773.92773,0,0,0,98.64,129.96Z" fill="#fff"/><path d="M55.8,111.84s1.2,9.48,5.16,11.76c2.64,1.44,9.24,1.32,15,1.8C69.6,122.88,60.12,116.16,55.8,111.84Z" fill="#fff"/><polygon points="102.72 168.6 105.84 172.92 112.8 172.92 115.92 168.6 102.72 168.6" fill="#fff"/><path d="M162.72,111.84c-4.32,4.32-13.68,11.04-20.04,13.56,5.64-.48,12.24-.36,15-1.8C161.64,121.31995,162.72,111.84,162.72,111.84Z" fill="#fff"/><path d="M115.92,143.52l-3.12-9.96L109.32,135.24l-3.6-1.68005-3,9.96a12.89093,12.89093,0,0,1-5.4,6.84l-1.92,8.16,4.56,6.24h4.92l-4.56-6.6.84-4.2a11.23354,11.23354,0,0,0,8.16,3.6,10.7954,10.7954,0,0,0,8.16-3.6l.72,4.2-4.44,6.6h4.8l4.56-6.24-1.8-8.16A12.89091,12.89091,0,0,1,115.92,143.52Z" fill="#fff"/><path d="M127.8,126.24c-3.12,1.44-6.24,2.88-7.8,3.6a1.04413,1.04413,0,0,0-.36,1.68c1.56,1.56,4.56,3,8.04.36a4.75346,4.75346,0,0,0,1.68-4.92A1.24832,1.24832,0,0,0,127.8,126.24Z" fill="#fff"/></svg>